<?xml version="1.0" encoding="UTF-8" standalone="no"?>
<!-- Created with Inkscape (http://www.inkscape.org/) -->

<svg
   xmlns:dc="http://purl.org/dc/elements/1.1/"
   xmlns:cc="http://creativecommons.org/ns#"
   xmlns:rdf="http://www.w3.org/1999/02/22-rdf-syntax-ns#"
   xmlns:svg="http://www.w3.org/2000/svg"
   xmlns="http://www.w3.org/2000/svg"
   xmlns:sodipodi="http://sodipodi.sourceforge.net/DTD/sodipodi-0.dtd"
   xmlns:inkscape="http://www.inkscape.org/namespaces/inkscape"
   width="210mm"
   height="297mm"
   viewBox="0 0 744.09448819 1052.3622047"
   id="svg4129"
   version="1.1"
   inkscape:version="0.91 r13725"
   sodipodi:docname="back.svg">
  <defs
     id="defs4131" />
  <sodipodi:namedview
     id="base"
     pagecolor="#ffffff"
     bordercolor="#666666"
     borderopacity="1.0"
     inkscape:pageopacity="0.0"
     inkscape:pageshadow="2"
     inkscape:zoom="2.8"
     inkscape:cx="312.81421"
     inkscape:cy="653.29553"
     inkscape:document-units="px"
     inkscape:current-layer="layer1"
     showgrid="false"
     inkscape:window-width="2880"
     inkscape:window-height="1505"
     inkscape:window-x="0"
     inkscape:window-y="36"
     inkscape:window-maximized="1" />
  <metadata
     id="metadata4134">
    <rdf:RDF>
      <cc:Work
         rdf:about="">
        <dc:format>image/svg+xml</dc:format>
        <dc:type
           rdf:resource="http://purl.org/dc/dcmitype/StillImage" />
        <dc:title />
      </cc:Work>
    </rdf:RDF>
  </metadata>
  <g
     inkscape:label="Layer 1"
     inkscape:groupmode="layer"
     id="layer1">
    <g
       id="g4209"
       transform="matrix(0,1,-1,0,-225.20866,172.16029)">
      <path
         inkscape:connector-curvature="0"
         d="m 28.914515,-863.89761 22.1652,0 0,10.6299 20.941,0 0,-10.6299 22.3247,0 0,10.6299 20.940905,0 0,-10.6299 22.3247,0 0,10.6299 20.941,0 0,-10.6299 22.3247,0 0,10.6299 20.9409,0 0,-10.6299 22.3247,0 0,10.6299 20.941,0 0,-10.6299 22.3247,0 0,10.6299 20.9409,0 0,-10.6299 22.3247,0 0,10.6299 20.941,0 0,-10.6299 22.3247,0 0,10.6299 20.9409,0 0,-10.6299 22.3247,0 0,10.6299 20.941,0 0,-10.6299 22.3247,0 0,10.6299 20.9409,0 0,-10.6299 22.3247,0 0,10.6299 20.9409,0 0,-10.6299 22.3247,0 0,10.6299 20.941,0 0,-10.6299 22.3247,0 0,10.6299 20.9409,0 0,-10.6299 22.3247,0 0,10.6299 20.941,0 0,-10.6299 22.32469,0 0,10.6299 20.9409,0 0,-10.6299 22.3247,0 0,10.6299 20.941,0 0,-10.6299 22.3247,0 0,10.6299 20.9409,0 0,-10.6299 22.3247,0 0,10.6299 20.941,0 0,-10.6299 22.1652,0"
         style="fill:none;stroke:#000000;stroke-width:1"
         inkscape:label="part"
         id="path4045" />
      <path
         inkscape:connector-curvature="0"
         d="m 829.70191,-863.89761 0,22.4316 -10.6299,0 0,20.941 10.6299,0 0,22.5911 -10.6299,0 0,20.9409 10.6299,0 0,22.5911 -10.6299,0 0,20.941 10.6299,0 0,22.59112 -10.6299,0 0,20.94094 10.6299,0 0,22.59111 -10.6299,0 0,20.94095 10.6299,0 0,22.59111 -10.6299,0 0,20.94095 10.6299,0 0,22.59111 -10.6299,0 0,20.94095 10.6299,0 0,22.59111 -10.6299,0 0,20.94094 10.6299,0 0,22.59111 -10.6299,0 0,20.94095 10.6299,0 0,22.59111 -10.6299,0 0,20.94095 10.6299,0 0,22.59111 -10.6299,0 0,20.94095 10.6299,0 0,22.59111 -10.6299,0 0,20.94095 10.6299,0 0,22.59111 -10.6299,0 0,20.94094 10.6299,0 0,22.43167"
         style="fill:none;stroke:#000000;stroke-width:1"
         inkscape:label="part"
         id="path4047" />
      <path
         inkscape:connector-curvature="0"
         d="m 829.70191,-275.70866 -22.1652,0 0,-10.62992 -20.941,0 0,10.62992 -22.3247,0 0,-10.62992 -20.9409,0 0,10.62992 -22.3247,0 0,-10.62992 -20.941,0 0,10.62992 -22.3247,0 0,-10.62992 -20.9409,0 0,10.62992 -22.32469,0 0,-10.62992 -20.941,0 0,10.62992 -22.3247,0 0,-10.62992 -20.9409,0 0,10.62992 -22.3247,0 0,-10.62992 -20.941,0 0,10.62992 -22.3247,0 0,-10.62992 -20.9409,0 0,10.62992 -22.3247,0 0,-10.62992 -20.9409,0 0,10.62992 -22.3247,0 0,-10.62992 -20.941,0 0,10.62992 -22.3247,0 0,-10.62992 -20.9409,0 0,10.62992 -22.3247,0 0,-10.62992 -20.941,0 0,10.62992 -22.3247,0 0,-10.62992 -20.9409,0 0,10.62992 -22.3247,0 0,-10.62992 -20.941,0 0,10.62992 -22.3247,0 0,-10.62992 -20.9409,0 0,10.62992 -22.3247,0 0,-10.62992 -20.941,0 0,10.62992 -22.3247,0 0,-10.62992 -20.940905,0 0,10.62992 -22.3247,0 0,-10.62992 -20.941,0 0,10.62992 -22.1652,0"
         style="fill:none;stroke:#000000;stroke-width:1"
         inkscape:label="part"
         id="path4049" />
      <path
         inkscape:connector-curvature="0"
         d="m 28.914515,-275.70866 0,-22.43167 10.6299,0 0,-20.94094 -10.6299,0 0,-22.59111 10.6299,0 0,-20.94095 -10.6299,0 0,-22.59111 10.6299,0 0,-20.94095 -10.6299,0 0,-22.59111 10.6299,0 0,-20.94095 -10.6299,0 0,-22.59111 10.6299,0 0,-20.94095 -10.6299,0 0,-22.59111 10.6299,0 0,-20.94094 -10.6299,0 0,-22.59111 10.6299,0 0,-20.94095 -10.6299,0 0,-22.59111 10.6299,0 0,-20.94095 -10.6299,0 0,-22.59111 10.6299,0 0,-20.94095 -10.6299,0 0,-22.59111 10.6299,0 0,-20.94094 -10.6299,0 0,-22.59112 10.6299,0 0,-20.941 -10.6299,0 0,-22.5911 10.6299,0 0,-20.9409 -10.6299,0 0,-22.5911 10.6299,0 0,-20.941 -10.6299,0 0,-22.4316"
         style="fill:none;stroke:#000000;stroke-width:1"
         inkscape:label="part"
         id="path4051" />
    </g>
    <rect
       y="908.19537"
       x="121.10876"
       height="62.304451"
       width="363.48557"
       id="rect5501"
       style="fill:#0000ff;fill-opacity:0;stroke:#000000;stroke-width:1.47507596;stroke-opacity:1" />
    <rect
       y="752.03381"
       x="485.81335"
       height="190.37553"
       width="115.96609"
       id="rect5503"
       style="fill:#0000ff;fill-opacity:0;stroke:#000000;stroke-width:0.96304232;stroke-opacity:1" />
    <rect
       y="688.34052"
       x="209.52165"
       height="62.644012"
       width="363.8251"
       id="rect5505"
       style="fill:#0000ff;fill-opacity:0;stroke:#000000;stroke-width:1.1355176;stroke-opacity:1" />
    <rect
       y="717.14307"
       x="93.048607"
       height="189.29089"
       width="114.88145"
       id="rect5507"
       style="fill:#0000ff;fill-opacity:0;stroke:#000000;stroke-width:2.04768968;stroke-opacity:1" />
    <circle
       r="5.7758684"
       cy="960.60748"
       cx="102.65468"
       id="path5509"
       style="fill:#0000ff;fill-opacity:0;stroke:#000000;stroke-width:1.20416832;stroke-opacity:1" />
    <circle
       r="5.7758684"
       cy="925.17438"
       cx="102.65468"
       id="path5509-3"
       style="fill:#0000ff;fill-opacity:0;stroke:#000000;stroke-width:1.20416832;stroke-opacity:1" />
    <circle
       r="5.7758684"
       cy="697.25677"
       cx="98.819969"
       id="path5509-3-6"
       style="fill:#0000ff;fill-opacity:0;stroke:#000000;stroke-width:1.20416832;stroke-opacity:1" />
    <circle
       r="5.7758684"
       cy="698.40271"
       cx="187.69405"
       id="path5509-3-6-7"
       style="fill:#0000ff;fill-opacity:0;stroke:#000000;stroke-width:1.20416832;stroke-opacity:1" />
    <circle
       r="5.7758684"
       cy="698.40271"
       cx="591.63104"
       id="path5509-3-6-7-5"
       style="fill:#0000ff;fill-opacity:0;stroke:#000000;stroke-width:1.20416832;stroke-opacity:1" />
    <circle
       r="5.7758684"
       cy="733.83575"
       cx="591.63104"
       id="path5509-3-6-7-5-3"
       style="fill:#0000ff;fill-opacity:0;stroke:#000000;stroke-width:1.20416832;stroke-opacity:1" />
    <circle
       r="5.7758684"
       cy="960.60748"
       cx="506.59167"
       id="path5509-3-6-7-5-5"
       style="fill:#0000ff;fill-opacity:0;stroke:#000000;stroke-width:1.20416832;stroke-opacity:1" />
    <circle
       r="5.7758684"
       cy="960.60748"
       cx="591.63104"
       id="path5509-3-6-7-5-6"
       style="fill:#0000ff;fill-opacity:0;stroke:#000000;stroke-width:1.20416832;stroke-opacity:1" />
    <circle
       style="fill:#0000ff;fill-opacity:0;stroke:#ff0000;stroke-width:1;stroke-opacity:1"
       id="path4854"
       cx="116.92913"
       cy="120.47244"
       r="10.129921" />
    <circle
       style="fill:#0000ff;fill-opacity:0;stroke:#0000ff;stroke-width:0.99999994;stroke-opacity:1"
       id="path4856"
       cx="116.92913"
       cy="120.47244"
       r="3.0433071" />
    <circle
       style="fill:#0000ff;fill-opacity:0;stroke:#ff0000;stroke-width:1;stroke-opacity:1"
       id="path4854-7"
       cx="149.64285"
       cy="141.46935"
       r="10.129921" />
    <circle
       style="fill:#0000ff;fill-opacity:0;stroke:#0000ff;stroke-width:0.99999994;stroke-opacity:1"
       id="path4856-3"
       cx="149.64285"
       cy="141.46935"
       r="3.0433071" />
    <circle
       style="fill:#0000ff;fill-opacity:0;stroke:#ff0000;stroke-width:1;stroke-opacity:1"
       id="path4854-6"
       cx="194.28571"
       cy="142.71935"
       r="10.129921" />
    <circle
       style="fill:#0000ff;fill-opacity:0;stroke:#0000ff;stroke-width:0.99999994;stroke-opacity:1"
       id="path4856-1"
       cx="194.28571"
       cy="142.71935"
       r="3.0433071" />
    <circle
       style="fill:#0000ff;fill-opacity:0;stroke:#ff0000;stroke-width:1;stroke-opacity:1"
       id="path4854-2"
       cx="115.35714"
       cy="158.07648"
       r="10.129921" />
    <circle
       style="fill:#0000ff;fill-opacity:0;stroke:#0000ff;stroke-width:0.99999994;stroke-opacity:1"
       id="path4856-9"
       cx="115.35714"
       cy="158.07648"
       r="3.0433071" />
    <circle
       style="fill:#0000ff;fill-opacity:0;stroke:#ff0000;stroke-width:1;stroke-opacity:1"
       id="path4854-3"
       cx="173.92857"
       cy="177.36221"
       r="10.129921" />
    <circle
       style="fill:#0000ff;fill-opacity:0;stroke:#0000ff;stroke-width:0.99999994;stroke-opacity:1"
       id="path4856-19"
       cx="173.92857"
       cy="177.36221"
       r="3.0433071" />
    <circle
       style="fill:#0000ff;fill-opacity:0;stroke:#ff0000;stroke-width:1;stroke-opacity:1"
       id="path4854-4"
       cx="173.03572"
       cy="112.3622"
       r="10.129921" />
    <circle
       style="fill:#0000ff;fill-opacity:0;stroke:#0000ff;stroke-width:0.99999994;stroke-opacity:1"
       id="path4856-7"
       cx="173.03572"
       cy="112.3622"
       r="3.0433071" />
    <circle
       style="fill:#0000ff;fill-opacity:0;stroke:#ff0000;stroke-width:1;stroke-opacity:1"
       id="path4854-8"
       cx="230.53571"
       cy="136.29079"
       r="10.129921" />
    <circle
       style="fill:#0000ff;fill-opacity:0;stroke:#0000ff;stroke-width:0.99999994;stroke-opacity:1"
       id="path4856-4"
       cx="230.53571"
       cy="136.29079"
       r="3.0433071" />
    <circle
       style="fill:#0000ff;fill-opacity:0;stroke:#ff0000;stroke-width:1;stroke-opacity:1"
       id="path4854-5"
       cx="221.07143"
       cy="172.54077"
       r="10.129921" />
    <circle
       style="fill:#0000ff;fill-opacity:0;stroke:#0000ff;stroke-width:0.99999994;stroke-opacity:1"
       id="path4856-0"
       cx="221.07143"
       cy="172.54077"
       r="3.0433071" />
    <circle
       cy="464.02139"
       cx="153.98482"
       id="path5509-3-6-7-3"
       style="fill:#008000;fill-opacity:0;stroke:#008000;stroke-width:1.20416832;stroke-opacity:1"
       r="6.838861" />
    <circle
       cy="251.42293"
       cx="153.98482"
       id="path5509-3-6-7-3-6"
       style="fill:#008000;fill-opacity:0;stroke:#008000;stroke-width:1.20416832;stroke-opacity:1"
       r="6.838861" />
    <circle
       cy="251.42293"
       cx="348.8667"
       id="path5509-3-6-7-3-6-1"
       style="fill:#008000;fill-opacity:0;stroke:#008000;stroke-width:1.20416832;stroke-opacity:1"
       r="6.838861" />
    <circle
       cy="464.02139"
       cx="348.8667"
       id="path5509-3-6-7-3-0"
       style="fill:#008000;fill-opacity:0;stroke:#008000;stroke-width:1.20416832;stroke-opacity:1"
       r="6.838861" />
  </g>
</svg>
