<?xml version="1.0" encoding="UTF-8" standalone="no"?>
<!-- Created with Inkscape (http://www.inkscape.org/) -->

<svg
   xmlns:dc="http://purl.org/dc/elements/1.1/"
   xmlns:cc="http://creativecommons.org/ns#"
   xmlns:rdf="http://www.w3.org/1999/02/22-rdf-syntax-ns#"
   xmlns:svg="http://www.w3.org/2000/svg"
   xmlns="http://www.w3.org/2000/svg"
   xmlns:sodipodi="http://sodipodi.sourceforge.net/DTD/sodipodi-0.dtd"
   xmlns:inkscape="http://www.inkscape.org/namespaces/inkscape"
   width="380mm"
   height="400mm"
   viewBox="0 0 1346.4567 1417.3228"
   id="svg3909"
   version="1.1"
   inkscape:version="0.91 r13725"
   sodipodi:docname="big_awkward_side.svg">
  <sodipodi:namedview
     id="base"
     pagecolor="#ffffff"
     bordercolor="#666666"
     borderopacity="1.0"
     inkscape:pageopacity="0.0"
     inkscape:pageshadow="2"
     inkscape:zoom="0.49497475"
     inkscape:cx="394.8749"
     inkscape:cy="432.49309"
     inkscape:document-units="px"
     inkscape:current-layer="layer1"
     showgrid="false"
     inkscape:window-width="2880"
     inkscape:window-height="1505"
     inkscape:window-x="0"
     inkscape:window-y="36"
     inkscape:window-maximized="1" />
  <defs
     id="defs3911" />
  <metadata
     id="metadata3914">
    <rdf:RDF>
      <cc:Work
         rdf:about="">
        <dc:format>image/svg+xml</dc:format>
        <dc:type
           rdf:resource="http://purl.org/dc/dcmitype/StillImage" />
        <dc:title></dc:title>
      </cc:Work>
    </rdf:RDF>
  </metadata>
  <g
     inkscape:label="Layer 1"
     inkscape:groupmode="layer"
     id="layer1"
     transform="translate(0,364.96063)">
    <path
       id="path4029"
       inkscape:label="part"
       style="fill:none;stroke:#000000;stroke-width:1"
       d="m 38.137777,-315.35361 21.84636,0 0,-10.62992 21.57874,0 0,10.62992 21.686903,0 0,-10.62992 21.57874,0 0,10.62992 21.68691,0 0,-10.62992 21.57874,0 0,10.62992 21.6869,0 0,-10.62992 21.57874,0 0,10.62992 21.6869,0 0,-10.62992 21.57874,0 0,10.62992 21.68691,0 0,-10.62992 21.57874,0 0,10.62992 21.6869,0 0,-10.62992 21.57874,0 0,10.62992 21.68691,0 0,-10.62992 21.57874,0 0,10.62992 21.6869,0 0,-10.62992 21.57874,0 0,10.62992 21.68691,0 0,-10.62992 21.57874,0 0,10.62992 21.6869,0 0,-10.62992 21.57874,0 0,10.62992 21.68691,0 0,-10.62992 21.57874,0 0,10.62992 21.6869,0 0,-10.62992 21.57874,0 0,10.62992 21.6869,0 0,-10.62992 21.57874,0 0,10.62992 21.68691,0 0,-10.62992 21.57874,0 0,10.62992 21.6869,0 0,-10.62992 21.57874,0 0,10.62992 21.68691,0 0,-10.62992 21.57874,0 0,10.62992 21.6869,0 0,-10.62992 21.57874,0 0,10.62992 21.84632,0"
       inkscape:connector-curvature="0" />
    <path
       id="path4031"
       inkscape:label="part"
       style="fill:none;stroke:#000000;stroke-width:1"
       d="m 838.92515,-315.35361 0,11.53533 -10.6299,0 0,20.94094 10.6299,0 0,22.3247 -10.6299,0 0,20.94095 10.6299,0 0,22.32469 -10.6299,0 0,20.94095 10.6299,0 0,22.3247 -10.6299,0 0,20.94094 10.6299,0 0,22.3247 -10.6299,0 0,20.94095 10.6299,0 0,22.324701 -10.6299,0 0,20.94094 10.6299,0 0,22.3247 -10.6299,0 0,20.94095 10.6299,0 0,22.32469957 -10.6299,0 0,20.94094043 10.6299,0 0,22.3247 -10.6299,0 0,20.94095 10.6299,0 0,22.3247 -10.6299,0 0,20.940939 10.6299,0 0,22.3247 -10.6299,0 0,20.94095 10.6299,0 0,22.32469 -10.6299,0 0,20.94095 10.6299,0 0,22.3247 -10.6299,0 0,20.94094 10.6299,0 0,22.3247 -10.6299,0 0,20.94095 10.6299,0 0,22.3247 -10.6299,0 0,20.94091 10.6299,0 0,22.3247 -10.6299,0 0,20.941 10.6299,0 0,22.3247 -10.6299,0 0,20.9409 10.6299,0 0,22.3247 -10.6299,0 0,20.941 10.6299,0 0,11.5353"
       inkscape:connector-curvature="0" />
    <path
       id="path4033"
       inkscape:label="part"
       style="fill:none;stroke:#000000;stroke-width:1"
       d="m 838.92515,464.17395 -21.84632,0 0,10.6299 -21.57874,0 0,-10.6299 -21.6869,0 0,10.6299 -21.57874,0 0,-10.6299 -21.68691,0 0,10.6299 -21.57874,0 0,-10.6299 -21.6869,0 0,10.6299 -21.57874,0 0,-10.6299 -21.68691,0 0,10.6299 -21.57874,0 0,-10.6299 -21.6869,0 0,10.6299 -21.57874,0 0,-10.6299 -21.6869,0 0,10.6299 -21.57874,0 0,-10.6299 -21.68691,0 0,10.6299 -21.57874,0 0,-10.6299 -21.6869,0 0,10.6299 -21.57874,0 0,-10.6299 -21.68691,0 0,10.6299 -21.57874,0 0,-10.6299 -21.6869,0 0,10.6299 -21.57874,0 0,-10.6299 -21.68691,0 0,10.6299 -21.57874,0 0,-10.6299 -21.6869,0 0,10.6299 -21.57874,0 0,-10.6299 -21.68691,0 0,10.6299 -21.57874,0 0,-10.6299 -21.6869,0 0,10.6299 -21.57874,0 0,-10.6299 -21.6869,0 0,10.6299 -21.57874,0 0,-10.6299 -21.68691,0 0,10.6299 -21.57874,0 0,-10.6299 -21.686903,0 0,10.6299 -21.57874,0 0,-10.6299 -21.84636,0"
       inkscape:connector-curvature="0" />
    <path
       id="path4035"
       inkscape:label="part"
       style="fill:none;stroke:#000000;stroke-width:1"
       d="m 38.137777,464.17395 0,-11.5353 10.62993,0 0,-20.941 -10.62993,0 0,-22.3247 10.62993,0 0,-20.9409 -10.62993,0 0,-22.3247 10.62993,0 0,-20.941 -10.62993,0 0,-22.3247 10.62993,0 0,-20.94091 -10.62993,0 0,-22.3247 10.62993,0 0,-20.94095 -10.62993,0 0,-22.3247 10.62993,0 0,-20.94094 -10.62993,0 0,-22.3247 10.62993,0 0,-20.94095 -10.62993,0 0,-22.32469 10.62993,0 0,-20.94095 -10.62993,0 0,-22.3247 10.62993,0 0,-20.940939 -10.62993,0 0,-22.3247 10.62993,0 0,-20.94095 -10.62993,0 0,-22.3247 10.62993,0 0,-20.94094043 -10.62993,0 0,-22.32469957 10.62993,0 0,-20.94095 -10.62993,0 0,-22.3247 10.62993,0 0,-20.94094 -10.62993,0 0,-22.324701 10.62993,0 0,-20.94095 -10.62993,0 0,-22.3247 10.62993,0 0,-20.94094 -10.62993,0 0,-22.3247 10.62993,0 0,-20.94095 -10.62993,0 0,-22.32469 10.62993,0 0,-20.94095 -10.62993,0 0,-22.3247 10.62993,0 0,-20.94094 -10.62993,0 0,-11.53533"
       inkscape:connector-curvature="0" />
  </g>
  <g
     inkscape:label="newlayer"
     inkscape:groupmode="layer"
     id="g4006"
     transform="translate(0,673.22835)" />
  <g
     id="g4054"
     inkscape:groupmode="layer"
     inkscape:label="newlayer"
     transform="translate(0,673.22835)" />
</svg>
