<?xml version="1.0" encoding="UTF-8" standalone="no"?>
<!-- Created with Inkscape (http://www.inkscape.org/) -->

<svg
   xmlns:dc="http://purl.org/dc/elements/1.1/"
   xmlns:cc="http://creativecommons.org/ns#"
   xmlns:rdf="http://www.w3.org/1999/02/22-rdf-syntax-ns#"
   xmlns:svg="http://www.w3.org/2000/svg"
   xmlns="http://www.w3.org/2000/svg"
   xmlns:sodipodi="http://sodipodi.sourceforge.net/DTD/sodipodi-0.dtd"
   xmlns:inkscape="http://www.inkscape.org/namespaces/inkscape"
   width="210mm"
   height="297mm"
   viewBox="0 0 744.09448819 1052.3622047"
   id="svg4129"
   version="1.1"
   inkscape:version="0.91 r13725"
   sodipodi:docname="front.svg">
  <defs
     id="defs4131" />
  <sodipodi:namedview
     id="base"
     pagecolor="#ffffff"
     bordercolor="#666666"
     borderopacity="1.0"
     inkscape:pageopacity="0.0"
     inkscape:pageshadow="2"
     inkscape:zoom="0.7"
     inkscape:cx="-585.55947"
     inkscape:cy="688.46525"
     inkscape:document-units="px"
     inkscape:current-layer="layer1"
     showgrid="false"
     inkscape:window-width="2880"
     inkscape:window-height="1505"
     inkscape:window-x="0"
     inkscape:window-y="36"
     inkscape:window-maximized="1" />
  <metadata
     id="metadata4134">
    <rdf:RDF>
      <cc:Work
         rdf:about="">
        <dc:format>image/svg+xml</dc:format>
        <dc:type
           rdf:resource="http://purl.org/dc/dcmitype/StillImage" />
        <dc:title></dc:title>
      </cc:Work>
    </rdf:RDF>
  </metadata>
  <g
     inkscape:label="Layer 1"
     inkscape:groupmode="layer"
     id="layer1">
    <g
       id="g4209"
       transform="matrix(0,1,-1,0,-225.20866,172.16029)">
      <path
         inkscape:connector-curvature="0"
         d="m 28.914515,-863.89761 22.1652,0 0,10.6299 20.941,0 0,-10.6299 22.3247,0 0,10.6299 20.940905,0 0,-10.6299 22.3247,0 0,10.6299 20.941,0 0,-10.6299 22.3247,0 0,10.6299 20.9409,0 0,-10.6299 22.3247,0 0,10.6299 20.941,0 0,-10.6299 22.3247,0 0,10.6299 20.9409,0 0,-10.6299 22.3247,0 0,10.6299 20.941,0 0,-10.6299 22.3247,0 0,10.6299 20.9409,0 0,-10.6299 22.3247,0 0,10.6299 20.941,0 0,-10.6299 22.3247,0 0,10.6299 20.9409,0 0,-10.6299 22.3247,0 0,10.6299 20.9409,0 0,-10.6299 22.3247,0 0,10.6299 20.941,0 0,-10.6299 22.3247,0 0,10.6299 20.9409,0 0,-10.6299 22.3247,0 0,10.6299 20.941,0 0,-10.6299 22.32469,0 0,10.6299 20.9409,0 0,-10.6299 22.3247,0 0,10.6299 20.941,0 0,-10.6299 22.3247,0 0,10.6299 20.9409,0 0,-10.6299 22.3247,0 0,10.6299 20.941,0 0,-10.6299 22.1652,0"
         style="fill:none;stroke:#000000;stroke-width:1"
         inkscape:label="part"
         id="path4045" />
      <path
         inkscape:connector-curvature="0"
         d="m 829.70191,-863.89761 0,22.4316 -10.6299,0 0,20.941 10.6299,0 0,22.5911 -10.6299,0 0,20.9409 10.6299,0 0,22.5911 -10.6299,0 0,20.941 10.6299,0 0,22.59112 -10.6299,0 0,20.94094 10.6299,0 0,22.59111 -10.6299,0 0,20.94095 10.6299,0 0,22.59111 -10.6299,0 0,20.94095 10.6299,0 0,22.59111 -10.6299,0 0,20.94095 10.6299,0 0,22.59111 -10.6299,0 0,20.94094 10.6299,0 0,22.59111 -10.6299,0 0,20.94095 10.6299,0 0,22.59111 -10.6299,0 0,20.94095 10.6299,0 0,22.59111 -10.6299,0 0,20.94095 10.6299,0 0,22.59111 -10.6299,0 0,20.94095 10.6299,0 0,22.59111 -10.6299,0 0,20.94094 10.6299,0 0,22.43167"
         style="fill:none;stroke:#000000;stroke-width:1"
         inkscape:label="part"
         id="path4047" />
      <path
         inkscape:connector-curvature="0"
         d="m 829.70191,-275.70866 -22.1652,0 0,-10.62992 -20.941,0 0,10.62992 -22.3247,0 0,-10.62992 -20.9409,0 0,10.62992 -22.3247,0 0,-10.62992 -20.941,0 0,10.62992 -22.3247,0 0,-10.62992 -20.9409,0 0,10.62992 -22.32469,0 0,-10.62992 -20.941,0 0,10.62992 -22.3247,0 0,-10.62992 -20.9409,0 0,10.62992 -22.3247,0 0,-10.62992 -20.941,0 0,10.62992 -22.3247,0 0,-10.62992 -20.9409,0 0,10.62992 -22.3247,0 0,-10.62992 -20.9409,0 0,10.62992 -22.3247,0 0,-10.62992 -20.941,0 0,10.62992 -22.3247,0 0,-10.62992 -20.9409,0 0,10.62992 -22.3247,0 0,-10.62992 -20.941,0 0,10.62992 -22.3247,0 0,-10.62992 -20.9409,0 0,10.62992 -22.3247,0 0,-10.62992 -20.941,0 0,10.62992 -22.3247,0 0,-10.62992 -20.9409,0 0,10.62992 -22.3247,0 0,-10.62992 -20.941,0 0,10.62992 -22.3247,0 0,-10.62992 -20.940905,0 0,10.62992 -22.3247,0 0,-10.62992 -20.941,0 0,10.62992 -22.1652,0"
         style="fill:none;stroke:#000000;stroke-width:1"
         inkscape:label="part"
         id="path4049" />
      <path
         inkscape:connector-curvature="0"
         d="m 28.914515,-275.70866 0,-22.43167 10.6299,0 0,-20.94094 -10.6299,0 0,-22.59111 10.6299,0 0,-20.94095 -10.6299,0 0,-22.59111 10.6299,0 0,-20.94095 -10.6299,0 0,-22.59111 10.6299,0 0,-20.94095 -10.6299,0 0,-22.59111 10.6299,0 0,-20.94095 -10.6299,0 0,-22.59111 10.6299,0 0,-20.94094 -10.6299,0 0,-22.59111 10.6299,0 0,-20.94095 -10.6299,0 0,-22.59111 10.6299,0 0,-20.94095 -10.6299,0 0,-22.59111 10.6299,0 0,-20.94095 -10.6299,0 0,-22.59111 10.6299,0 0,-20.94094 -10.6299,0 0,-22.59112 10.6299,0 0,-20.941 -10.6299,0 0,-22.5911 10.6299,0 0,-20.9409 -10.6299,0 0,-22.5911 10.6299,0 0,-20.941 -10.6299,0 0,-22.4316"
         style="fill:none;stroke:#000000;stroke-width:1"
         inkscape:label="part"
         id="path4051" />
    </g>
    <g
       id="g3691"
       transform="translate(119.60003,-90.202693)">
      <g
         id="g3679"
         transform="matrix(0.70710678,0.70710678,-0.70710678,0.70710678,642.81041,79.869325)">
        <path
           id="path6112"
           d="m 375.18657,905.81399 a 175.41725,175.41725 0 0 0 18.7168,-43.74805 l 0,-92.1914 a 175.41725,175.41725 0 0 0 -18.7168,-43.81836 l 0,179.75781 z"
           style="fill:#0000ff;fill-opacity:0;stroke:#ff0000;stroke-width:3.49621391;stroke-opacity:1"
           inkscape:connector-curvature="0" />
        <path
           id="path6106"
           d="m 339.75299,947.99954 a 175.41725,175.41725 0 0 0 18.71878,-19.15625 l 0,-226.28711 a 175.41725,175.41725 0 0 0 -18.71878,-18.86719 l 0,264.31055 z"
           style="fill:#0000ff;fill-opacity:0;stroke:#ff0000;stroke-width:3.49621391;stroke-opacity:1"
           inkscape:connector-curvature="0" />
        <path
           id="path6101"
           d="m 304.31939,972.03665 a 175.41725,175.41725 0 0 0 18.71875,-11.17579 l 0,-290.0371 a 175.41725,175.41725 0 0 0 -18.71875,-11.16993 l 0,312.38282 z"
           style="fill:#0000ff;fill-opacity:0;stroke:#ff0000;stroke-width:3.49621391;stroke-opacity:1"
           inkscape:connector-curvature="0" />
        <path
           id="path6096"
           d="m 268.8858,985.52888 a 175.41725,175.41725 0 0 0 18.71875,-6.06255 l 0,-327.16797 a 175.41725,175.41725 0 0 0 -18.71875,-6.00781 l 0,339.23833 z"
           style="fill:#0000ff;fill-opacity:0;stroke:#ff0000;stroke-width:3.49621391;stroke-opacity:1"
           inkscape:connector-curvature="0" />
        <path
           id="path6091"
           d="m 233.45416,990.92338 a 175.41725,175.41725 0 0 0 18.71875,-1.9629 l 0,-346.13868 a 175.41725,175.41725 0 0 0 -18.71875,-2.01758 l 0,350.11916 z"
           style="fill:#0000ff;fill-opacity:0;stroke:#ff0000;stroke-width:3.49621391;stroke-opacity:1"
           inkscape:connector-curvature="0" />
        <path
           id="path6086"
           d="m 198.02056,988.98978 a 175.41725,175.41725 0 0 0 18.71875,2.0449 l 0,-349.98827 a 175.41725,175.41725 0 0 0 -18.71875,1.95508 l 0,345.98829 z"
           style="fill:#0000ff;fill-opacity:0;stroke:#ff0000;stroke-width:3.49621391;stroke-opacity:1"
           inkscape:connector-curvature="0" />
        <path
           id="path6081"
           d="m 162.58697,979.40579 a 175.41725,175.41725 0 0 0 18.71875,5.99999 l 0,-338.83398 a 175.41725,175.41725 0 0 0 -18.71875,5.8711 l 0,326.96289 z"
           style="fill:#0000ff;fill-opacity:0;stroke:#ff0000;stroke-width:3.49621391;stroke-opacity:1"
           inkscape:connector-curvature="0" />
        <path
           id="path6076"
           d="m 127.15533,961.04836 a 175.41725,175.41725 0 0 0 18.7168,10.90235 l 0,-312.05078 a 175.41725,175.41725 0 0 0 -18.7168,10.86133 l 0,290.2871 z"
           style="fill:#0000ff;fill-opacity:0;stroke:#ff0000;stroke-width:3.49621391;stroke-opacity:1"
           inkscape:connector-curvature="0" />
        <path
           id="path6071"
           d="m 91.72174,929.53469 a 175.41725,175.41725 0 0 0 18.71875,18.61719 l 0,-264.46484 A 175.41725,175.41725 0 0 0 91.72174,702.5054 l 0,227.02929 z"
           style="fill:#0000ff;fill-opacity:0;stroke:#ff0000;stroke-width:3.49621391;stroke-opacity:1"
           inkscape:connector-curvature="0" />
        <path
           id="path5613"
           d="m 56.28814,863.49954 a 175.41725,175.41725 0 0 0 18.71875,42.79101 l 0,-180.5039 a 175.41725,175.41725 0 0 0 -18.71875,43.09961 l 0,94.61328 z"
           style="fill:#0000ff;fill-opacity:0;stroke:#ff0000;stroke-width:3.49621391;stroke-opacity:1"
           inkscape:connector-curvature="0" />
      </g>
      <circle
         style="fill:#0000ff;fill-opacity:0;stroke:#0000ff;stroke-width:0.98352098;stroke-opacity:1"
         id="path5615"
         cx="-957.65631"
         cy="366.82855"
         r="6.5948539"
         transform="matrix(0,-1,1,0,0,0)" />
      <circle
         style="fill:#0000ff;fill-opacity:0;stroke:#0000ff;stroke-width:0.98352098;stroke-opacity:1"
         id="path5615-2"
         cx="-957.65631"
         cy="83.364014"
         r="6.5948539"
         transform="matrix(0,-1,1,0,0,0)" />
      <circle
         style="fill:#0000ff;fill-opacity:0;stroke:#0000ff;stroke-width:0.98352098;stroke-opacity:1"
         id="path5615-2-9"
         cx="-674.19177"
         cy="83.364014"
         r="6.5948539"
         transform="matrix(0,-1,1,0,0,0)" />
      <circle
         style="fill:#0000ff;fill-opacity:0;stroke:#0000ff;stroke-width:0.98352098;stroke-opacity:1"
         id="path5615-2-1"
         cx="-674.19177"
         cy="366.82855"
         r="6.5948539"
         transform="matrix(0,-1,1,0,0,0)" />
    </g>
    <g
       id="g3867"
       transform="translate(118.60479,-103.57144)">
      <g
         id="g3660"
         transform="translate(-177.14285,-441.42857)">
        <circle
           r="73.567383"
           cy="922.95276"
           cx="403.13272"
           id="path6261"
           style="fill:#0000ff;fill-opacity:0;stroke:#ff0000;stroke-width:1.68413734;stroke-opacity:1" />
        <circle
           r="5.0080838"
           cy="924.72443"
           cx="486.40045"
           id="path6265"
           style="fill:#0000ff;fill-opacity:0;stroke:#ff0000;stroke-width:0.61375397;stroke-opacity:1" />
        <circle
           r="5.0006127"
           cy="924.72443"
           cx="319.86502"
           id="path6267"
           style="fill:#0000ff;fill-opacity:0;stroke:#ff0000;stroke-width:0.62869555;stroke-opacity:1" />
      </g>
    </g>
  </g>
</svg>
