<?xml version="1.0" encoding="UTF-8" standalone="no"?>
<!-- Created with Inkscape (http://www.inkscape.org/) -->

<svg
   xmlns:dc="http://purl.org/dc/elements/1.1/"
   xmlns:cc="http://creativecommons.org/ns#"
   xmlns:rdf="http://www.w3.org/1999/02/22-rdf-syntax-ns#"
   xmlns:svg="http://www.w3.org/2000/svg"
   xmlns="http://www.w3.org/2000/svg"
   xmlns:sodipodi="http://sodipodi.sourceforge.net/DTD/sodipodi-0.dtd"
   xmlns:inkscape="http://www.inkscape.org/namespaces/inkscape"
   width="210mm"
   height="297mm"
   viewBox="0 0 744.09448819 1052.3622047"
   id="svg4129"
   version="1.1"
   inkscape:version="0.91 r13725"
   sodipodi:docname="front_back.svg">
  <defs
     id="defs4131" />
  <sodipodi:namedview
     id="base"
     pagecolor="#ffffff"
     bordercolor="#666666"
     borderopacity="1.0"
     inkscape:pageopacity="0.0"
     inkscape:pageshadow="2"
     inkscape:zoom="0.7"
     inkscape:cx="-585.55947"
     inkscape:cy="1031.3224"
     inkscape:document-units="px"
     inkscape:current-layer="layer1"
     showgrid="false"
     inkscape:window-width="2880"
     inkscape:window-height="1505"
     inkscape:window-x="0"
     inkscape:window-y="36"
     inkscape:window-maximized="1" />
  <metadata
     id="metadata4134">
    <rdf:RDF>
      <cc:Work
         rdf:about="">
        <dc:format>image/svg+xml</dc:format>
        <dc:type
           rdf:resource="http://purl.org/dc/dcmitype/StillImage" />
        <dc:title></dc:title>
      </cc:Work>
    </rdf:RDF>
  </metadata>
  <g
     inkscape:label="Layer 1"
     inkscape:groupmode="layer"
     id="layer1">
    <g
       id="g4209"
       transform="matrix(0,1,-1,0,-194.78063,59.460079)">
      <path
         inkscape:connector-curvature="0"
         d="m 28.914515,-863.89761 22.1652,0 0,10.6299 20.941,0 0,-10.6299 22.3247,0 0,10.6299 20.940905,0 0,-10.6299 22.3247,0 0,10.6299 20.941,0 0,-10.6299 22.3247,0 0,10.6299 20.9409,0 0,-10.6299 22.3247,0 0,10.6299 20.941,0 0,-10.6299 22.3247,0 0,10.6299 20.9409,0 0,-10.6299 22.3247,0 0,10.6299 20.941,0 0,-10.6299 22.3247,0 0,10.6299 20.9409,0 0,-10.6299 22.3247,0 0,10.6299 20.941,0 0,-10.6299 22.3247,0 0,10.6299 20.9409,0 0,-10.6299 22.3247,0 0,10.6299 20.9409,0 0,-10.6299 22.3247,0 0,10.6299 20.941,0 0,-10.6299 22.3247,0 0,10.6299 20.9409,0 0,-10.6299 22.3247,0 0,10.6299 20.941,0 0,-10.6299 22.32469,0 0,10.6299 20.9409,0 0,-10.6299 22.3247,0 0,10.6299 20.941,0 0,-10.6299 22.3247,0 0,10.6299 20.9409,0 0,-10.6299 22.3247,0 0,10.6299 20.941,0 0,-10.6299 22.1652,0"
         style="fill:none;stroke:#000000;stroke-width:1"
         inkscape:label="part"
         id="path4045" />
      <path
         inkscape:connector-curvature="0"
         d="m 829.70191,-863.89761 0,22.4316 -10.6299,0 0,20.941 10.6299,0 0,22.5911 -10.6299,0 0,20.9409 10.6299,0 0,22.5911 -10.6299,0 0,20.941 10.6299,0 0,22.59112 -10.6299,0 0,20.94094 10.6299,0 0,22.59111 -10.6299,0 0,20.94095 10.6299,0 0,22.59111 -10.6299,0 0,20.94095 10.6299,0 0,22.59111 -10.6299,0 0,20.94095 10.6299,0 0,22.59111 -10.6299,0 0,20.94094 10.6299,0 0,22.59111 -10.6299,0 0,20.94095 10.6299,0 0,22.59111 -10.6299,0 0,20.94095 10.6299,0 0,22.59111 -10.6299,0 0,20.94095 10.6299,0 0,22.59111 -10.6299,0 0,20.94095 10.6299,0 0,22.59111 -10.6299,0 0,20.94094 10.6299,0 0,22.43167"
         style="fill:none;stroke:#000000;stroke-width:1"
         inkscape:label="part"
         id="path4047" />
      <path
         inkscape:connector-curvature="0"
         d="m 829.70191,-275.70866 -22.1652,0 0,-10.62992 -20.941,0 0,10.62992 -22.3247,0 0,-10.62992 -20.9409,0 0,10.62992 -22.3247,0 0,-10.62992 -20.941,0 0,10.62992 -22.3247,0 0,-10.62992 -20.9409,0 0,10.62992 -22.32469,0 0,-10.62992 -20.941,0 0,10.62992 -22.3247,0 0,-10.62992 -20.9409,0 0,10.62992 -22.3247,0 0,-10.62992 -20.941,0 0,10.62992 -22.3247,0 0,-10.62992 -20.9409,0 0,10.62992 -22.3247,0 0,-10.62992 -20.9409,0 0,10.62992 -22.3247,0 0,-10.62992 -20.941,0 0,10.62992 -22.3247,0 0,-10.62992 -20.9409,0 0,10.62992 -22.3247,0 0,-10.62992 -20.941,0 0,10.62992 -22.3247,0 0,-10.62992 -20.9409,0 0,10.62992 -22.3247,0 0,-10.62992 -20.941,0 0,10.62992 -22.3247,0 0,-10.62992 -20.9409,0 0,10.62992 -22.3247,0 0,-10.62992 -20.941,0 0,10.62992 -22.3247,0 0,-10.62992 -20.940905,0 0,10.62992 -22.3247,0 0,-10.62992 -20.941,0 0,10.62992 -22.1652,0"
         style="fill:none;stroke:#000000;stroke-width:1"
         inkscape:label="part"
         id="path4049" />
      <path
         inkscape:connector-curvature="0"
         d="m 28.914515,-275.70866 0,-22.43167 10.6299,0 0,-20.94094 -10.6299,0 0,-22.59111 10.6299,0 0,-20.94095 -10.6299,0 0,-22.59111 10.6299,0 0,-20.94095 -10.6299,0 0,-22.59111 10.6299,0 0,-20.94095 -10.6299,0 0,-22.59111 10.6299,0 0,-20.94095 -10.6299,0 0,-22.59111 10.6299,0 0,-20.94094 -10.6299,0 0,-22.59111 10.6299,0 0,-20.94095 -10.6299,0 0,-22.59111 10.6299,0 0,-20.94095 -10.6299,0 0,-22.59111 10.6299,0 0,-20.94095 -10.6299,0 0,-22.59111 10.6299,0 0,-20.94094 -10.6299,0 0,-22.59112 10.6299,0 0,-20.941 -10.6299,0 0,-22.5911 10.6299,0 0,-20.9409 -10.6299,0 0,-22.5911 10.6299,0 0,-20.941 -10.6299,0 0,-22.4316"
         style="fill:none;stroke:#000000;stroke-width:1"
         inkscape:label="part"
         id="path4051" />
    </g>
  </g>
</svg>
