<?xml version="1.0" encoding="UTF-8" standalone="no"?>
<!-- Created with Inkscape (http://www.inkscape.org/) -->

<svg
   xmlns:dc="http://purl.org/dc/elements/1.1/"
   xmlns:cc="http://creativecommons.org/ns#"
   xmlns:rdf="http://www.w3.org/1999/02/22-rdf-syntax-ns#"
   xmlns:svg="http://www.w3.org/2000/svg"
   xmlns="http://www.w3.org/2000/svg"
   xmlns:sodipodi="http://sodipodi.sourceforge.net/DTD/sodipodi-0.dtd"
   xmlns:inkscape="http://www.inkscape.org/namespaces/inkscape"
   width="210mm"
   height="297mm"
   viewBox="0 0 744.09448819 1052.3622047"
   id="svg4228"
   version="1.1"
   inkscape:version="0.91 r13725"
   sodipodi:docname="sides.svg">
  <defs
     id="defs4230" />
  <sodipodi:namedview
     id="base"
     pagecolor="#ffffff"
     bordercolor="#666666"
     borderopacity="1.0"
     inkscape:pageopacity="0.0"
     inkscape:pageshadow="2"
     inkscape:zoom="0.35"
     inkscape:cx="375"
     inkscape:cy="520"
     inkscape:document-units="px"
     inkscape:current-layer="layer1"
     showgrid="false"
     inkscape:window-width="2880"
     inkscape:window-height="1505"
     inkscape:window-x="0"
     inkscape:window-y="36"
     inkscape:window-maximized="1" />
  <metadata
     id="metadata4233">
    <rdf:RDF>
      <cc:Work
         rdf:about="">
        <dc:format>image/svg+xml</dc:format>
        <dc:type
           rdf:resource="http://purl.org/dc/dcmitype/StillImage" />
        <dc:title></dc:title>
      </cc:Work>
    </rdf:RDF>
  </metadata>
  <g
     inkscape:label="Layer 1"
     inkscape:groupmode="layer"
     id="layer1">
    <g
       id="g4203"
       transform="matrix(0,1,-1,0,-192.66024,901.6704)">
      <path
         inkscape:connector-curvature="0"
         d="m -764.78628,-853.26771 11.2164,0 0,-10.6299 21.5788,0 0,10.6299 21.6869,0 0,-10.6299 21.5787,0 0,10.6299 21.6869,0 0,-10.6299 21.5788,0 0,10.6299 21.6869,0 0,-10.6299 21.5787,0 0,10.6299 21.6869,0 0,-10.6299 21.5788,0 0,10.6299 21.6869,0 0,-10.6299 21.5787,0 0,10.6299 21.6869,0 0,-10.6299 21.5788,0 0,10.6299 21.6869,0 0,-10.6299 21.5787,0 0,10.6299 21.6869,0 0,-10.6299 21.5787,0 0,10.6299 21.6869,0 0,-10.6299 21.5788,0 0,10.6299 21.6869,0 0,-10.6299 21.5787,0 0,10.6299 21.6869,0 0,-10.6299 21.5788,0 0,10.6299 21.6869,0 0,-10.6299 21.5787,0 0,10.6299 21.6869,0 0,-10.6299 21.5788,0 0,10.6299 21.6869,0 0,-10.6299 21.5787,0 0,10.6299 21.6869,0 0,-10.6299 21.578695,0 0,10.6299 21.6869,0 0,-10.6299 21.5788,0 0,10.6299 21.6869,0 0,-10.6299 21.5787002,0 0,10.6299 11.2164998,0"
         style="fill:none;stroke:#000000;stroke-width:1"
         inkscape:label="part"
         id="path4037" />
      <path
         inkscape:connector-curvature="0"
         d="m 14.741315,-853.26771 0,11.4828 10.6299,0 0,21.5788 -10.6299,0 0,21.9533 10.6299,0 0,21.5787 -10.6299,0 0,21.9534 10.6299,0 0,21.5787 -10.6299,0 0,21.95332 10.6299,0 0,21.57874 -10.6299,0 0,21.95332 10.6299,0 0,21.57874 -10.6299,0 0,21.95332 10.6299,0 0,21.57874 -10.6299,0 0,21.95331 10.6299,0 0,21.57874 -10.6299,0 0,21.95332 10.6299,0 0,21.57874 -10.6299,0 0,21.95332 10.6299,0 0,21.57874 -10.6299,0 0,21.95332 10.6299,0 0,21.57874 -10.6299,0 0,21.95331 10.6299,0 0,21.57874 -10.6299,0 0,21.95332 10.6299,0 0,21.57874 -10.6299,0 0,21.95332 10.6299,0 0,21.57874 -10.6299,0 0,11.48285"
         style="fill:none;stroke:#000000;stroke-width:1"
         inkscape:label="part"
         id="path4039" />
      <path
         inkscape:connector-curvature="0"
         d="m 14.741315,-286.33858 -11.2164998,0 0,10.62992 -21.5787002,0 0,-10.62992 -21.6869,0 0,10.62992 -21.5788,0 0,-10.62992 -21.6869,0 0,10.62992 -21.578695,0 0,-10.62992 -21.6869,0 0,10.62992 -21.5787,0 0,-10.62992 -21.6869,0 0,10.62992 -21.5788,0 0,-10.62992 -21.6869,0 0,10.62992 -21.5787,0 0,-10.62992 -21.6869,0 0,10.62992 -21.5788,0 0,-10.62992 -21.6869,0 0,10.62992 -21.5787,0 0,-10.62992 -21.6869,0 0,10.62992 -21.5788,0 0,-10.62992 -21.6869,0 0,10.62992 -21.5787,0 0,-10.62992 -21.6869,0 0,10.62992 -21.5787,0 0,-10.62992 -21.6869,0 0,10.62992 -21.5788,0 0,-10.62992 -21.6869,0 0,10.62992 -21.5787,0 0,-10.62992 -21.6869,0 0,10.62992 -21.5788,0 0,-10.62992 -21.6869,0 0,10.62992 -21.5787,0 0,-10.62992 -21.6869,0 0,10.62992 -21.5788,0 0,-10.62992 -21.6869,0 0,10.62992 -21.5787,0 0,-10.62992 -21.6869,0 0,10.62992 -21.5788,0 0,-10.62992 -11.2164,0"
         style="fill:none;stroke:#000000;stroke-width:1"
         inkscape:label="part"
         id="path4041" />
      <path
         inkscape:connector-curvature="0"
         d="m -764.78628,-286.33858 0,-11.48285 -10.6299,0 0,-21.57874 10.6299,0 0,-21.95332 -10.6299,0 0,-21.57874 10.6299,0 0,-21.95332 -10.6299,0 0,-21.57874 10.6299,0 0,-21.95331 -10.6299,0 0,-21.57874 10.6299,0 0,-21.95332 -10.6299,0 0,-21.57874 10.6299,0 0,-21.95332 -10.6299,0 0,-21.57874 10.6299,0 0,-21.95332 -10.6299,0 0,-21.57874 10.6299,0 0,-21.95331 -10.6299,0 0,-21.57874 10.6299,0 0,-21.95332 -10.6299,0 0,-21.57874 10.6299,0 0,-21.95332 -10.6299,0 0,-21.57874 10.6299,0 0,-21.95332 -10.6299,0 0,-21.5787 10.6299,0 0,-21.9534 -10.6299,0 0,-21.5787 10.6299,0 0,-21.9533 -10.6299,0 0,-21.5788 10.6299,0 0,-11.4828"
         style="fill:none;stroke:#000000;stroke-width:1"
         inkscape:label="part"
         id="path4043" />
    </g>
  </g>
</svg>
